<svg width="48" height="49" viewBox="0 0 48 49" fill="none" xmlns="http://www.w3.org/2000/svg">
<path d="M24 1.5C36.7025 1.5 47 11.7975 47 24.5C47 37.2025 36.7025 47.5 24 47.5C11.2975 47.5 1 37.2025 1 24.5C1 11.7975 11.2975 1.5 24 1.5Z" fill="white"/>
<path d="M24 1.5C36.7025 1.5 47 11.7975 47 24.5C47 37.2025 36.7025 47.5 24 47.5C11.2975 47.5 1 37.2025 1 24.5C1 11.7975 11.2975 1.5 24 1.5Z" stroke="#0099E7" stroke-width="2"/>
<path d="M19.6637 20.7415C19.7203 21.1913 20.3502 20.713 20.7893 20.5687C21.7577 20.2504 22.8714 20.0732 23.8914 20.1406C25.1186 20.1452 25.9401 20.2861 27.1209 20.6068C27.3914 20.6802 27.8747 20.8962 28.1011 20.9305C28.3443 21.0409 28.5862 21.1569 28.8204 21.286C29.3219 21.5629 29.8284 21.8208 30.3 22.1493C35.3568 25.67 36.2904 32.9996 32.6308 37.8786C29.3632 42.2351 23.3848 43.6662 18.578 40.9906C14.5358 38.7406 12.0037 33.6882 13.0075 29.1158C13.3891 25.8012 16.111 22.7836 18.9625 21.286V20.9305C18.9788 21.047 18.9668 21.1686 18.9625 21.286C19.2664 21.1352 19.6632 21.1453 19.6637 20.7415Z" fill="#DFAD35"/>
<path d="M23.8914 20.1406C25.1186 20.1452 25.9401 20.2861 27.1209 20.6068C27.3914 20.6802 27.8747 20.8962 28.1011 20.9305C28.3443 21.0409 28.5862 21.1569 28.8204 21.286C29.3219 21.5629 29.8284 21.8209 30.3 22.1493C35.3568 25.67 36.2904 32.9996 32.6308 37.8786C29.3632 42.2352 23.3848 43.6662 18.578 40.9906C14.5358 38.7406 12.0037 33.6882 13.0075 29.1158C13.0823 29.0661 13.1049 28.5746 13.5408 28.7541C13.8752 28.892 14.2166 29.2477 14.4003 29.5515C14.3877 29.6731 14.3563 29.7999 14.3802 29.9209C14.3889 30.2199 14.3079 30.5422 14.2979 30.8459C14.2392 32.6323 14.6056 34.2755 15.4323 35.851C15.4792 35.9405 15.5463 36.1238 15.6312 36.1714L15.6414 36.1494C15.4827 35.8445 15.3504 35.5252 15.2044 35.2142L15.2167 35.2046C15.409 35.5091 15.5278 35.8752 15.7 36.1944C16.2131 37.1452 16.9814 37.9902 17.8228 38.6614C23.9282 43.5327 32.8127 39.3819 33.3543 31.786C33.6792 27.2274 30.4235 22.7051 25.8754 21.8425C25.143 21.7036 24.4183 21.6837 23.6779 21.6317C23.8064 21.5797 24.1929 21.6345 24.356 21.6289C23.7175 21.4277 24.1718 21.8856 23.8914 21.0988C24.0051 20.864 24.2336 20.2618 23.8914 20.1406Z" fill="url(#paint0_linear_21361_9826)"/>
<path d="M19.6638 20.7415C19.7204 21.1913 20.3503 20.713 20.7894 20.5687C21.7578 20.2504 22.8715 20.0732 23.8915 20.1406C24.2337 20.2618 24.0052 20.864 23.8915 21.0988C24.1718 21.8856 23.7176 21.4277 24.3561 21.6288C24.1929 21.6345 23.8064 21.5797 23.678 21.6317C23.1104 21.6829 22.5355 21.719 21.976 21.8318C18.0577 22.6225 14.8646 25.9262 14.3803 29.9208C14.3563 29.7999 14.3877 29.6731 14.4004 29.5515C14.2167 29.2477 13.8753 28.8919 13.5409 28.7541C13.105 28.5746 13.0824 29.0661 13.0076 29.1158C13.3891 25.8012 16.1111 22.7836 18.9626 21.286V20.9305C18.9789 21.047 18.9669 21.1686 18.9626 21.286C19.2665 21.1352 19.6633 21.1453 19.6638 20.7415Z" fill="#F7D86C"/>
<path d="M23.5301 22.7573C28.2268 22.5802 32.18 26.24 32.3649 30.9364C32.5498 35.6328 28.8966 39.5919 24.2004 39.7845C19.4933 39.9776 15.5229 36.3141 15.3375 31.6067C15.1522 26.8993 18.8223 22.9349 23.5301 22.7573Z" fill="#F7D86C"/>
<path d="M26.6716 23.6888C29.6531 24.7923 31.8293 27.604 31.9622 30.9779C32.1382 35.4478 28.6613 39.2159 24.1917 39.3993C22.803 39.4563 21.4817 39.1605 20.3142 38.5918L22.8748 36.0313L23.6248 26.9844L26.6716 23.6888Z" fill="#E8BD46"/>
<path d="M13.7922 6.22373C14.4252 6.19167 15.0671 6.2231 15.7016 6.22359L19.5673 6.22373L23.9898 13.83C24.9205 12.2792 25.8479 10.7192 26.7353 9.14318L27.801 7.27141C27.9972 6.92311 28.1706 6.54401 28.4094 6.22373C30.3322 6.2234 32.2619 6.18701 34.184 6.22373C33.6913 7.04419 27.0325 18.429 26.9826 18.8379C26.9943 18.8543 27.0034 18.8724 27.021 18.8828C27.141 19.0687 27.2673 19.2427 27.3315 19.4569C26.6633 19.4445 25.9935 19.457 25.3253 19.457L21.3323 19.4569C21.2339 19.2582 21.1055 19.069 20.9854 18.8828C20.7504 18.4155 20.4392 17.9789 20.2364 17.4966C20.1074 17.36 19.9314 16.961 19.8269 16.7782L14.4094 7.26715C14.209 6.91694 14.0187 6.55795 13.7922 6.22373Z" fill="#0099E7"/>
<path d="M20.9855 18.8828C21.1057 19.069 21.234 19.2582 21.3325 19.4569C21.0856 19.47 20.8479 19.4667 20.6011 19.4569C19.6929 19.8862 19.6395 19.5775 19.6638 20.7415C19.6633 21.1453 19.2665 21.1352 18.9626 21.286C18.9669 21.1686 18.9789 21.047 18.9626 20.9305C18.9508 19.9465 18.9868 19.3113 20.0204 18.9099C20.3254 18.8104 20.6719 18.8571 20.9855 18.8828Z" fill="#435870"/>
<path d="M27.021 18.8828C27.557 18.901 28.0358 18.7883 28.4521 19.229C28.9208 19.7254 28.8484 20.6336 28.8203 21.286C28.5862 21.1569 28.3443 21.0409 28.101 20.9305C28.0787 20.3175 28.2262 19.3878 27.3315 19.4569C27.2673 19.2427 27.141 19.0687 27.021 18.8828Z" fill="#435870"/>
<path d="M20.4516 36.4517V35.0065L22.2774 34.7809V28.2953L20.4375 28.2742V26.9066L24.7448 26.1875V34.7809L26.5706 35.0065V36.4517H20.4516Z" fill="#DFAD35"/>
<path d="M20.7436 36.2188V34.7736L22.5694 34.548V28.0624L20.7295 28.0413V26.6736L25.0368 25.9546V34.548L26.8626 34.7736V36.2188H20.7436Z" fill="#FBFBFA"/>
<defs>
<linearGradient id="paint0_linear_21361_9826" x1="29.3116" y1="40.7614" x2="19.1827" y2="22.9385" gradientUnits="userSpaceOnUse">
<stop stop-color="#FCC325"/>
<stop offset="1" stop-color="#FFE069"/>
</linearGradient>
</defs>
</svg>