<svg width="512" height="512" viewBox="0 0 512 512" fill="none" xmlns="http://www.w3.org/2000/svg">
<path d="M256 10C391.862 10 502 120.138 502 256C502 391.862 391.862 502 256 502C120.138 502 10 391.862 10 256C10 120.138 120.138 10 256 10Z" fill="white"/>
<path d="M256 10C391.862 10 502 120.138 502 256C502 391.862 391.862 502 256 502C120.138 502 10 391.862 10 256C10 120.138 120.138 10 256 10Z" stroke="#C0C1C4" stroke-width="20"/>
<path d="M209.747 215.909C210.35 220.707 217.069 215.605 221.753 214.066C232.083 210.671 243.962 208.781 254.842 209.5C267.932 209.548 276.695 211.052 289.29 214.472C292.175 215.256 297.33 217.56 299.745 217.925C302.34 219.103 304.92 220.341 307.417 221.717C312.767 224.671 318.17 227.422 323.2 230.925C377.14 268.48 387.097 346.662 348.062 398.705C313.207 445.175 249.438 460.44 198.166 431.9C155.049 407.9 128.04 354.007 138.747 305.235C142.817 269.88 171.851 237.692 202.267 221.717V217.925C202.441 219.168 202.313 220.465 202.267 221.717C205.509 220.108 209.741 220.216 209.747 215.909Z" fill="#C0C1C4"/>
<path d="M254.842 209.5C267.932 209.549 276.695 211.052 289.29 214.473C292.175 215.256 297.33 217.56 299.745 217.926C302.34 219.103 304.92 220.341 307.417 221.717C312.767 224.671 318.17 227.423 323.2 230.926C377.14 268.48 387.097 346.662 348.062 398.705C313.207 445.175 249.438 460.44 198.166 431.9C155.049 407.9 128.04 354.007 138.747 305.235C139.545 304.705 139.786 299.463 144.435 301.378C148.003 302.848 151.644 306.643 153.604 309.883C153.469 311.18 153.134 312.533 153.389 313.823C153.482 317.013 152.618 320.45 152.512 323.69C151.885 342.745 155.793 360.273 164.611 377.078C165.112 378.033 165.827 379.987 166.733 380.495L166.841 380.26C165.149 377.008 163.738 373.603 162.181 370.285L162.312 370.182C164.363 373.43 165.631 377.335 167.467 380.74C172.94 390.882 181.135 399.895 190.11 407.055C255.235 459.015 350.002 414.74 355.78 333.717C359.245 285.092 324.517 236.854 276.005 227.654C268.192 226.172 260.462 225.959 252.565 225.404C253.935 224.85 258.057 225.434 259.797 225.374C252.987 223.229 257.832 228.113 254.842 219.721C256.055 217.216 258.492 210.792 254.842 209.5Z" fill="url(#paint0_linear_21037_15094)"/>
<path d="M209.747 215.909C210.351 220.707 217.07 215.605 221.753 214.066C232.083 210.671 243.962 208.781 254.843 209.5C258.493 210.792 256.055 217.216 254.843 219.721C257.833 228.113 252.988 223.229 259.798 225.374C258.058 225.434 253.935 224.85 252.565 225.404C246.511 225.951 240.378 226.336 234.411 227.54C192.615 235.974 158.556 271.212 153.389 313.822C153.134 312.532 153.469 311.18 153.604 309.882C151.644 306.642 148.003 302.847 144.436 301.377C139.787 299.462 139.545 304.705 138.747 305.235C142.817 269.88 171.851 237.692 202.268 221.717V217.925C202.441 219.168 202.313 220.465 202.268 221.717C205.509 220.108 209.742 220.216 209.747 215.909Z" fill="#E5E2DA"/>
<path d="M250.987 237.412C301.085 235.522 343.252 274.56 345.225 324.655C347.197 374.75 308.23 416.98 258.137 419.035C207.928 421.095 165.576 382.017 163.6 331.805C161.623 281.592 200.771 239.305 250.987 237.412Z" fill="#E1E1E1"/>
<path d="M284.499 247.347C316.302 259.118 339.514 289.109 340.932 325.098C342.809 372.776 305.722 412.97 258.046 414.926C243.234 415.534 229.14 412.378 216.687 406.312L244 379L252 335L269 305L261 277L284.499 247.347Z" fill="#E5E2DA"/>
<path d="M319.474 272.698C319.515 272.751 325.658 280.439 330.528 287.217C335.932 297.149 339.455 308.278 340.596 320.145L290 385H266L249.198 361.723L319.474 272.698Z" fill="#C0C1C4"/>
<path d="M147.118 61.0533C153.87 60.7113 160.717 61.0466 167.485 61.0518L208.719 61.0533L255.892 142.187C265.82 125.645 275.712 109.005 285.177 92.1941L296.545 72.2286C298.637 68.5133 300.487 64.4696 303.035 61.0533C323.545 61.0498 344.127 60.6616 364.63 61.0533C359.375 69.8048 288.347 191.243 287.815 195.605C287.94 195.779 288.037 195.973 288.225 196.084C289.505 198.067 290.852 199.923 291.537 202.207C284.41 202.075 277.265 202.208 270.137 202.209L227.546 202.207C226.496 200.088 225.126 198.069 223.845 196.084C221.338 191.099 218.019 186.442 215.855 181.297C214.479 179.84 212.603 175.584 211.488 173.635L153.701 72.1831C151.563 68.4476 149.533 64.6183 147.118 61.0533Z" fill="#0E6997"/>
<path d="M223.845 196.084C225.126 198.069 226.496 200.088 227.546 202.207C224.913 202.346 222.377 202.311 219.745 202.207C210.057 206.786 209.487 203.493 209.747 215.909C209.741 220.216 205.509 220.109 202.267 221.717C202.313 220.466 202.441 219.169 202.267 217.926C202.141 207.43 202.526 200.654 213.551 196.373C216.804 195.311 220.5 195.81 223.845 196.084Z" fill="#4B633A"/>
<path d="M288.225 196.084C293.943 196.278 299.05 195.075 303.49 199.777C308.49 205.071 307.718 214.758 307.418 221.717C304.92 220.341 302.34 219.103 299.745 217.926C299.508 211.387 301.08 201.47 291.538 202.207C290.853 199.923 289.505 198.067 288.225 196.084Z" fill="#4B633A"/>
<path d="M209.026 385V368.081L244.293 330.934C247.451 327.325 249.958 324.142 251.812 321.385C253.667 318.628 255 317 256.798 313.79C257.999 311.645 260.076 307.253 260.076 305.098C260.076 301.538 259.124 298.531 257.219 296.074C255.314 293.568 252.354 293.186 247 294.5C245.686 294.823 242.5 295.814 241.5 301.5C240.972 304.5 241 304.5 240.5 306.5C239 308 238.5 308.5 236.397 310.557H209.598L209.447 310.105C209.297 303.338 210.751 297.222 213.809 291.758C216.917 286.294 224 278.072 234 273.937C239.815 270.728 237.851 273.936 245.722 273.936C253.592 273.936 260.335 275.315 265.949 278.072C271.614 280.779 275.95 284.614 278.958 289.577C282.016 294.49 283.545 300.255 283.545 306.872C283.545 311.384 282.768 315.545 281.214 319.354C279.71 323.114 277.203 327.15 273.694 331.461C270.235 335.772 265.598 340.986 259.783 347.102L243.24 364.622L243.391 364.998H265.122L266.25 355.899H286.026V385H209.026Z" fill="#C0C1C4"/>
<path d="M252.722 270.437C260.535 270.437 267.198 271.806 272.729 274.521L272.733 274.523C278.318 277.192 282.577 280.963 285.53 285.836L285.533 285.842C288.535 290.664 290.045 296.335 290.045 302.872C290.045 307.325 289.278 311.422 287.751 315.166L287.749 315.169C286.269 318.868 283.795 322.86 280.307 327.146L280.304 327.148C276.857 331.444 272.23 336.647 266.421 342.757L266.42 342.758L249.877 360.278L249.657 360.511L249.775 360.808L249.926 361.184L250.052 361.498H272.563L272.618 361.06L273.691 352.399H292.526V380.5H216.526V364.28L251.655 327.279L251.669 327.264C254.836 323.645 257.357 320.445 259.228 317.664C261.096 314.887 262.446 312.319 263.267 309.963C264.136 307.609 264.576 305.32 264.576 303.098C264.576 299.444 263.596 296.324 261.613 293.768C259.594 291.113 256.574 289.814 252.646 289.814C248.353 289.814 245.1 291.35 242.985 294.467C240.973 297.385 239.961 301.263 239.896 306.057H214.958L214.945 306.02C214.809 299.364 216.246 293.362 219.245 288.002L219.244 288.001C222.304 282.623 226.697 278.352 232.435 275.187C238.163 272.026 244.92 270.437 252.722 270.437Z" fill="url(#paint1_linear_21037_15094)" stroke="#F9F9F7"/>
<path d="M132.698 218.184C150.976 216.162 167.443 229.311 169.516 247.583C171.588 265.854 158.485 282.359 140.22 284.483C121.883 286.616 105.298 273.45 103.215 255.106C101.135 236.761 114.348 220.214 132.698 218.184Z" fill="#872E27"/>
<path d="M148.949 210C154.469 209.996 156.117 221.167 158.987 225.069C162.257 229.516 171.012 230.366 174.502 234.181C178.814 238.895 163.279 243.467 160.847 245.429C155.789 249.507 155.904 257.804 150.877 261.12C146.139 262.019 143.462 249.756 141.089 246.611C137.832 242.291 127.469 240.318 124.919 236.6C122.219 232.664 137.382 227.939 139.597 226.025C144.404 221.871 143.849 213.473 148.949 210Z" fill="#E7E4DD"/>
<defs>
<linearGradient id="paint0_linear_21037_15094" x1="312.657" y1="429.455" x2="204.616" y2="239.344" gradientUnits="userSpaceOnUse">
<stop stop-color="#DBD7CD"/>
<stop offset="1" stop-color="#F2F1ED"/>
</linearGradient>
<linearGradient id="paint1_linear_21037_15094" x1="301.389" y1="328.834" x2="207.321" y2="323.144" gradientUnits="userSpaceOnUse">
<stop stop-color="#D7D3C7"/>
<stop offset="1" stop-color="white"/>
</linearGradient>
</defs>
</svg>