<svg width="512" height="512" viewBox="0 0 512 512" fill="none" xmlns="http://www.w3.org/2000/svg">
<path d="M256 10C391.862 10 502 120.138 502 256C502 391.862 391.862 502 256 502C120.138 502 10 391.862 10 256C10 120.138 120.138 10 256 10Z" fill="white"/>
<path d="M256 10C391.862 10 502 120.138 502 256C502 391.862 391.862 502 256 502C120.138 502 10 391.862 10 256C10 120.138 120.138 10 256 10Z" stroke="#C2761F" stroke-width="20"/>
<path d="M209.747 215.909C210.35 220.707 217.069 215.605 221.753 214.066C232.083 210.671 243.962 208.781 254.842 209.5C267.932 209.548 276.695 211.052 289.29 214.472C292.175 215.256 297.33 217.56 299.745 217.925C302.34 219.103 304.92 220.341 307.417 221.717C312.767 224.671 318.17 227.422 323.2 230.925C377.14 268.48 387.097 346.662 348.062 398.705C313.207 445.175 249.438 460.44 198.166 431.9C155.049 407.9 128.04 354.007 138.747 305.235C142.817 269.88 171.851 237.692 202.267 221.717V217.925C202.441 219.168 202.313 220.465 202.267 221.717C205.509 220.108 209.741 220.216 209.747 215.909Z" fill="#C2761F"/>
<path d="M254.842 209.5C267.932 209.549 276.695 211.052 289.29 214.473C292.175 215.256 297.33 217.56 299.745 217.926C302.34 219.103 304.92 220.341 307.417 221.717C312.767 224.671 318.17 227.423 323.2 230.926C377.14 268.48 387.097 346.662 348.062 398.705C313.207 445.175 249.438 460.44 198.166 431.9C155.049 407.9 128.04 354.007 138.747 305.235C139.545 304.705 139.786 299.463 144.435 301.378C148.003 302.848 151.644 306.643 153.604 309.883C153.469 311.18 153.134 312.533 153.389 313.823C153.482 317.013 152.618 320.45 152.512 323.69C151.885 342.745 155.793 360.273 164.611 377.078C165.112 378.033 165.827 379.987 166.733 380.495L166.841 380.26C165.149 377.008 163.738 373.603 162.181 370.285L162.312 370.182C164.363 373.43 165.631 377.335 167.467 380.74C172.94 390.882 181.135 399.895 190.11 407.055C255.235 459.015 350.002 414.74 355.78 333.717C359.245 285.092 324.517 236.854 276.005 227.654C268.192 226.172 260.462 225.959 252.565 225.404C253.935 224.85 258.057 225.434 259.797 225.374C252.987 223.229 257.832 228.113 254.842 219.721C256.055 217.216 258.492 210.792 254.842 209.5Z" fill="url(#paint0_linear_21037_15111)"/>
<path d="M209.747 215.909C210.351 220.707 217.07 215.605 221.753 214.066C232.083 210.671 243.962 208.781 254.843 209.5C258.493 210.792 256.055 217.216 254.843 219.721C257.833 228.113 252.988 223.229 259.798 225.374C258.058 225.434 253.935 224.85 252.565 225.404C246.511 225.951 240.378 226.336 234.411 227.54C192.615 235.974 158.556 271.212 153.389 313.822C153.134 312.532 153.469 311.18 153.604 309.882C151.644 306.642 148.003 302.847 144.436 301.377C139.787 299.462 139.545 304.705 138.747 305.235C142.817 269.88 171.851 237.692 202.268 221.717V217.925C202.441 219.168 202.313 220.465 202.268 221.717C205.509 220.108 209.742 220.216 209.747 215.909Z" fill="#F4AE3E"/>
<path d="M250.987 237.412C301.085 235.522 343.252 274.56 345.225 324.655C347.197 374.75 308.23 416.98 258.137 419.035C207.928 421.095 165.576 382.017 163.6 331.805C161.623 281.592 200.771 239.305 250.987 237.412Z" fill="#F4AE3E"/>
<path d="M284.499 247.347C316.302 259.118 339.514 289.109 340.932 325.098C342.809 372.776 305.722 412.97 258.046 414.926C243.234 415.534 229.14 412.378 216.687 406.312L244 379L274 360L269 325.098L274 294.5L252 282.5L284.499 247.347Z" fill="#DE8A1C"/>
<path d="M322.098 274.527C330.593 285.15 336.65 297.84 339.378 311.777L286.001 372.001L268.5 335.5L322.098 274.527Z" fill="#C2761F"/>
<path d="M147.118 61.0533C153.87 60.7113 160.717 61.0466 167.485 61.0518L208.719 61.0533L255.892 142.187C265.82 125.645 275.712 109.005 285.177 92.1941L296.545 72.2286C298.637 68.5133 300.487 64.4696 303.035 61.0533C323.545 61.0498 344.127 60.6616 364.63 61.0533C359.375 69.8048 288.347 191.243 287.815 195.605C287.94 195.779 288.037 195.973 288.225 196.084C289.505 198.067 290.852 199.923 291.537 202.207C284.41 202.075 277.265 202.208 270.137 202.209L227.546 202.207C226.496 200.088 225.126 198.069 223.845 196.084C221.338 191.099 218.019 186.442 215.855 181.297C214.479 179.84 212.603 175.584 211.488 173.635L153.701 72.1831C151.563 68.4476 149.533 64.6183 147.118 61.0533Z" fill="#E24E42"/>
<path d="M223.845 196.084C225.126 198.069 226.496 200.088 227.546 202.207C224.913 202.346 222.377 202.311 219.745 202.207C210.057 206.786 209.487 203.493 209.747 215.909C209.741 220.216 205.509 220.109 202.267 221.717C202.313 220.466 202.441 219.169 202.267 217.926C202.141 207.43 202.526 200.654 213.551 196.373C216.804 195.311 220.5 195.81 223.845 196.084Z" fill="#0E6997"/>
<path d="M288.225 196.084C293.943 196.278 299.05 195.075 303.49 199.777C308.49 205.071 307.718 214.758 307.418 221.717C304.92 220.341 302.34 219.103 299.745 217.926C299.508 211.387 301.08 201.47 291.538 202.207C290.853 199.923 289.505 198.067 288.225 196.084Z" fill="#0E6997"/>
<path d="M251.827 385.579C244.658 385.579 238.041 384.351 231.975 381.895C225.96 379.388 221.172 375.729 217.613 370.916C214.054 366.104 212.349 360.213 212.5 353.245L212.575 352.794L215.5 350L238.292 352.794C238.292 355.1 238.843 357.23 239.946 359.186C241.049 361.09 242.603 362.619 244.608 363.772C246.664 364.925 249.07 365.502 251.827 365.502C256.138 365.502 259.547 364.249 262.054 361.742C264.61 359.236 265.889 355.977 265.889 351.967C265.889 347.856 264.51 344.497 261.753 341.891C258.996 339.234 254.985 337.905 249.722 337.905H238.517V318.43L241.5 315.5C244.458 315.5 255.913 317.903 257.918 316.851C259.973 315.748 261.527 314.244 262.58 312.339C263.633 310.384 264.159 308.128 264.159 305.571C264.159 301.962 263.081 298.979 260.926 296.623C258.82 294.267 255.787 293.089 251.827 293.089C249.571 293.089 247.541 293.54 245.736 294.442C243.982 295.345 243 297.5 243 300.5C242 302 241.5 302.5 240.021 303.691H214.38L214.229 303.24C214.029 297.225 215.508 291.936 218.666 287.374C221.874 282.812 226.336 279.278 232.051 276.771C237.765 274.215 244.257 272.937 251.526 272.937C263.257 272.937 272.681 275.644 279.8 281.058C286.968 286.422 290.553 294.016 290.553 303.842C290.553 309.306 289.099 313.993 286.191 317.903C283.334 321.763 279.048 325.072 273.333 327.829C279.098 329.985 283.685 333.243 287.094 337.604C290.553 341.966 292.282 347.179 292.282 353.245C292.282 359.912 290.528 365.677 287.018 370.54C283.509 375.353 278.697 379.062 272.581 381.669C266.515 384.276 259.597 385.579 251.827 385.579Z" fill="#C2761F"/>
<path d="M254.827 382.579C247.658 382.579 241.041 381.351 234.975 378.895C228.96 376.388 224.172 372.729 220.613 367.916C217.054 363.104 215.349 357.213 215.5 350.245L215.575 349.794H241.292C241.292 352.1 241.843 354.23 242.946 356.186C244.049 358.09 245.603 359.619 247.608 360.772C249.664 361.925 252.07 362.502 254.827 362.502C259.138 362.502 262.547 361.249 265.054 358.742C267.61 356.236 268.889 352.977 268.889 348.967C268.889 344.856 267.51 341.497 264.753 338.891C261.996 336.234 257.985 334.905 252.722 334.905H241.517V315.43H253.473C256.431 315.43 258.913 314.903 260.918 313.851C262.973 312.748 264.527 311.244 265.58 309.339C266.633 307.384 267.159 305.128 267.159 302.571C267.159 298.962 266.081 295.979 263.926 293.623C261.82 291.267 258.787 290.089 254.827 290.089C252.571 290.089 250.541 290.54 248.736 291.442C246.982 292.345 245.578 293.598 244.525 295.202C243.523 296.756 243.021 298.586 243.021 300.691H217.38L217.229 300.24C217.029 294.225 218.508 288.936 221.666 284.374C224.874 279.812 229.336 276.278 235.051 273.771C240.765 271.215 247.257 269.937 254.526 269.937C266.257 269.937 275.681 272.644 282.8 278.058C289.968 283.422 293.553 291.016 293.553 300.842C293.553 306.306 292.099 310.993 289.191 314.903C286.334 318.763 282.048 322.072 276.333 324.829C282.098 326.985 286.685 330.243 290.094 334.604C293.553 338.966 295.282 344.179 295.282 350.245C295.282 356.912 293.528 362.677 290.018 367.54C286.509 372.353 281.697 376.062 275.581 378.669C269.515 381.276 262.597 382.579 254.827 382.579Z" fill="url(#paint1_linear_21037_15111)"/>
<path d="M370.698 331.184C388.976 329.162 405.443 342.311 407.516 360.583C409.588 378.854 396.485 395.359 378.22 397.483C359.883 399.616 343.298 386.45 341.215 368.106C339.135 349.761 352.348 333.214 370.698 331.184Z" fill="#AA281E"/>
<path d="M353.949 323C359.469 322.996 361.117 334.167 363.987 338.069C367.257 342.516 376.012 343.366 379.502 347.181C383.814 351.895 368.279 356.467 365.847 358.429C360.789 362.507 360.904 370.804 355.877 374.12C351.139 375.019 348.462 362.756 346.089 359.611C342.832 355.291 332.469 353.318 329.919 349.6C327.219 345.664 342.382 340.939 344.597 339.025C349.404 334.871 348.849 326.473 353.949 323Z" fill="#E2DED5"/>
<defs>
<linearGradient id="paint0_linear_21037_15111" x1="312.657" y1="429.455" x2="204.616" y2="239.344" gradientUnits="userSpaceOnUse">
<stop stop-color="#F2A01C"/>
<stop offset="1" stop-color="#F7C26E"/>
</linearGradient>
<linearGradient id="paint1_linear_21037_15111" x1="300.287" y1="328.834" x2="208.391" y2="323.404" gradientUnits="userSpaceOnUse">
<stop stop-color="#D7D3C7"/>
<stop offset="1" stop-color="white"/>
</linearGradient>
</defs>
</svg>